<svg width="26" height="26" viewBox="0 0 26 26" fill="none" xmlns="http://www.w3.org/2000/svg">
<path d="M13.0033 0H12.9967C5.82888 0 0 5.8305 0 13C0 15.8438 0.9165 18.4795 2.47487 20.6196L0.85475 25.4491L5.85162 23.8518C7.90725 25.2135 10.3594 26 13.0033 26C20.1711 26 26 20.1679 26 13C26 5.83213 20.1711 0 13.0033 0Z" fill="#00335B"/>
<path d="M20.5675 18.3576C20.2539 19.2432 19.0091 19.9777 18.0162 20.1922C17.337 20.3369 16.4497 20.4522 13.463 19.214C9.64262 17.6312 7.18237 13.7491 6.99062 13.4972C6.80699 13.2454 5.44687 11.4416 5.44687 9.57612C5.44687 7.71062 6.39424 6.80224 6.77612 6.41224C7.08974 6.09212 7.60812 5.94587 8.10537 5.94587C8.26624 5.94587 8.41087 5.95399 8.54087 5.96049C8.92274 5.97674 9.11449 5.99949 9.36637 6.60237C9.67999 7.35799 10.4437 9.22349 10.5347 9.41524C10.6274 9.60699 10.72 9.86699 10.59 10.1189C10.4681 10.3789 10.3609 10.4942 10.1691 10.7152C9.97737 10.9362 9.79537 11.1052 9.60362 11.3425C9.42812 11.5489 9.22987 11.7699 9.45087 12.1517C9.67187 12.5255 10.4356 13.7719 11.5601 14.7729C13.0112 16.0647 14.1877 16.4775 14.6086 16.653C14.9222 16.783 15.296 16.7521 15.5251 16.5084C15.816 16.1947 16.1751 15.6747 16.5407 15.1629C16.8007 14.7956 17.129 14.7501 17.4735 14.8801C17.8245 15.002 19.6819 15.9201 20.0637 16.1102C20.4456 16.302 20.6975 16.393 20.7901 16.5539C20.8811 16.7147 20.8811 17.4704 20.5675 18.3576Z" fill="white"/>
</svg>
